<?xml version="1.0" standalone="no"?>
<!DOCTYPE svg PUBLIC "-//W3C//DTD SVG 20010904//EN"
 "http://www.w3.org/TR/2001/REC-SVG-20010904/DTD/svg10.dtd">
<svg version="1.0" xmlns="http://www.w3.org/2000/svg"
 width="1200.000000pt" height="1200.000000pt" viewBox="0 0 1200.000000 1200.000000"
 preserveAspectRatio="xMidYMid meet">

<g transform="translate(0.000000,1200.000000) scale(0.100000,-0.100000)"
fill="#000000" stroke="none">
<path d="M5730 10239 c-924 -55 -1814 -421 -2525 -1040 -121 -105 -364 -352
-461 -469 -692 -831 -1043 -1881 -985 -2945 43 -791 280 -1505 713 -2153 241
-360 569 -711 923 -989 431 -338 975 -607 1510 -748 994 -262 2053 -159 2965
291 452 222 813 485 1170 850 259 266 437 497 625 814 568 959 730 2147 440
3245 -156 591 -447 1153 -849 1635 -97 117 -340 364 -461 469 -852 742 -1929
1107 -3065 1040z m665 -1895 c143 -18 326 -61 450 -104 199 -70 457 -216 589
-333 l48 -43 -35 -70 c-69 -137 -197 -367 -223 -401 -51 -66 -132 -95 -210
-74 -21 6 -91 40 -154 77 -349 201 -535 255 -820 241 -328 -17 -551 -151 -637
-383 -34 -91 -44 -263 -20 -345 24 -83 85 -169 163 -231 137 -109 267 -166
692 -307 347 -115 440 -151 618 -236 157 -75 261 -143 362 -238 176 -167 286
-371 328 -608 21 -114 23 -378 5 -494 -55 -345 -194 -631 -416 -849 -243 -239
-560 -386 -945 -437 -123 -16 -428 -16 -552 0 -363 47 -715 176 -1003 369
-127 85 -292 227 -287 246 7 23 256 422 280 449 40 43 118 77 176 77 66 0 118
-25 281 -134 210 -141 439 -246 600 -276 101 -19 304 -24 411 -11 202 25 337
85 455 201 120 119 167 235 176 440 8 170 -19 258 -109 367 -123 148 -298 234
-738 364 -320 94 -600 202 -746 287 -268 156 -448 377 -538 657 -46 146 -69
452 -47 614 31 216 115 426 241 603 221 310 603 527 1030 583 138 18 432 18
575 -1z"/>
</g>
</svg>
